<?xml version="1.0" encoding="UTF-8"?> <svg xmlns="http://www.w3.org/2000/svg" viewBox="0 0 128.5 20"><defs><style>.cls-1{fill:#082c49;}.cls-2{fill:#d4d500;}.cls-3{fill:none;}</style></defs><title>Element 11MYTIGATE</title><g id="Ebene_2" data-name="Ebene 2"><g id="Ebene_1-2" data-name="Ebene 1"><path class="cls-1" d="M16.83,19l.1-12.64h-.08L12.31,19h-3L4.94,6.35H4.87L5,19H1V1.13H7l4,11.45h.1L14.85,1.13h6.09V19Z"></path><path class="cls-1" d="M33,11.3,33,19H28.94l0-7.69L22.37,1.13H27.1L31.05,7.8l4-6.67,4.47.06Z"></path><path class="cls-1" d="M49.25,4.5V19H45.43V4.5l-5,.06L40.3,1.13l14.12-.07L54.5,4.5Z"></path><path class="cls-1" d="M56.83,19V1.23h3.89V19Z"></path><path class="cls-1" d="M80.35,17.66a14.6,14.6,0,0,1-3.12,1.06,16.91,16.91,0,0,1-3.88.42,11.81,11.81,0,0,1-4-.66,9.28,9.28,0,0,1-3.15-1.84,8.28,8.28,0,0,1-2.06-2.85,8.9,8.9,0,0,1-.75-3.7,9.06,9.06,0,0,1,.76-3.74A8.36,8.36,0,0,1,66.22,3.5a9.42,9.42,0,0,1,3.13-1.81,11.55,11.55,0,0,1,3.87-.63,12.61,12.61,0,0,1,4,.62,8.44,8.44,0,0,1,3,1.66l-2.77,3a4.68,4.68,0,0,0-1.69-1.15,6,6,0,0,0-2.39-.45,5.5,5.5,0,0,0-2.13.4,5.22,5.22,0,0,0-1.69,1.11,5,5,0,0,0-1.11,1.7,5.6,5.6,0,0,0-.4,2.15,6.35,6.35,0,0,0,.36,2.18A4.7,4.7,0,0,0,69.46,14a4.84,4.84,0,0,0,1.75,1.12,6.69,6.69,0,0,0,2.37.4A9.72,9.72,0,0,0,75,15.39,5.59,5.59,0,0,0,76.32,15V11.91H73.54V8.56h6.81Z"></path><path class="cls-1" d="M107.88,4.57,107.94,19h-4.29l-.06-14.42h-5l.06-3.5,14,.06-.06,3.5Z"></path><path class="cls-1" d="M114.91,19V1.06h12V4.74h-7.81V8.1h7.38v3.47h-7.38V15.3h8.26V19Z"></path><polygon class="cls-2" points="89.61 1.06 93.04 1.06 100.75 19.01 96.22 19.01 91.42 6.66 86.31 19.01 82.09 19.01 89.61 1.06"></polygon><rect class="cls-3" width="128.5" height="20"></rect></g></g></svg> 